<svg width="694" height="592" viewBox="0 0 694 592" fill="none" xmlns="http://www.w3.org/2000/svg">
<path fill-rule="evenodd" clip-rule="evenodd" d="M486.297 92.8118C440.017 90.3482 407.654 79.005 389.206 58.7822C370.758 38.5594 342.123 21.4736 303.301 7.52481C264.478 -6.42396 227.27 -0.0486481 191.676 26.6507C157.388 52.3708 128.213 87.9093 104.151 133.266C47.3507 111.68 14.9612 139.151 6.98231 215.679C-2.51527 306.773 1.34391 379.652 18.5599 434.314C35.7759 488.977 77.4827 532.792 143.68 565.76C198.42 593.022 253.529 587.382 309.008 548.841C351.322 600.12 410.26 604.4 485.825 561.684C577.535 509.839 640.929 441.263 676.006 355.956C711.082 270.648 693.133 212.516 622.157 181.561C605.756 174.407 590.015 168.86 574.934 164.918C574.625 163.697 574.296 162.469 573.949 161.235C561.794 118.083 532.577 95.2754 486.297 92.8118Z" fill="#DD524C"/>
</svg>
