<svg xmlns="http://www.w3.org/2000/svg" width="100" height="100"
  viewBox="0 0 219 219">
  <path
    d="M109.461 219c60.55 0 109.639-49.1 109.639-109.6C219.096 48.8 170-.3 109.5-.3 48.912-.3-.2 48.8-.2 109.4-.173 169.9 48.9 219 109.5 219h-.039zm0-122.4C135.7 96.6 157 75.3 157 49.1c-.03-26.3-21.3-47.5-47.5-47.5C83.223 1.6 62 22.8 62 49.1c-.047 26.2 21.2 47.5 47.5 47.5h-.039zM61.502 208.1c1.64-11.5 1.398-25.1-.002-39.4-1.525-15.7-2.3-38.1-4.4-42-2.15-3.8-19-24.6-26.6-38.6-7.567-14-6.8-31.8-6.8-37.1-.046-11 6.4-16.6 14.4-16.6 8.118 0 12.8 7 14.7 14.7 1.42 6.1 3.4 19.2 13.2 31.4 10.102 12.4 27.4 21.6 42.5 21.6 14.892 0 30.1-7.7 40.1-17.2 10.008-9.6 14.8-21 15.6-35.8.025-8.1 6.6-14.7 14.6-14.7 8.116 0 14.7 6.6 14.7 14.7-.04.6-.1 1.3-.2 1.9-.556 10.9-3.6 25.7-7.9 35.2-2.133 4.6-8.2 15.7-12.8 23.2-6.155 10.5-10.9 17.7-11.9 22.8-1.21 6.2-3 21.1-2.7 37.8.264 12.2 2.6 25.2 2.7 36.5-15.849 7.2-29.8 12.5-50.4 12.5-19.606 0-37.8-5.4-48.8-10.9zm44.172 10.6s-1.374-7.8-.174-11.2c1.106-3.3 3.7-3.5 4.7-3.5 1.104 0 4.2-1.6 5 3.5.8 5.1.8 10.6.8 11.2 0 .6-10.3 0-10.3 0z"
    fill="#fff" fill-rule="evenodd" />
</svg>