<svg width="487" height="404" viewBox="0 0 487 404" fill="none"
  xmlns="http://www.w3.org/2000/svg">
  <path
    d="M297.206 58.7821C315.654 79.0049 348.018 90.3481 394.297 92.8117C440.577 95.2753 469.795 118.083 481.949 161.234C494.103 204.386 482.775 239.751 447.966 267.329C413.156 294.906 380.668 316.047 350.5 330.749C320.333 345.452 284.379 366.018 242.639 392.446C200.9 418.874 183.271 398.687 189.755 331.886C196.238 265.084 161.66 228.116 86.0215 220.982C10.3829 213.848 -15.1495 186.351 9.42438 138.49C33.9982 90.6299 64.0822 53.35 99.6761 26.6506C135.27 -0.0487666 172.478 -6.42408 211.301 7.52469C250.123 21.4735 278.758 38.5593 297.206 58.7821Z"
    fill="#DD524C" />
</svg>