<?xml version="1.0" encoding="UTF-8" standalone="no"?>
<svg width="219px" height="219px" viewBox="0 0 219 219" version="1.1" xmlns="http://www.w3.org/2000/svg" xmlns:xlink="http://www.w3.org/1999/xlink" xmlns:sketch="http://www.bohemiancoding.com/sketch/ns">
    <!-- Generator: Sketch 3.0.4 (8053) - http://www.bohemiancoding.com/sketch -->
    <title>caplan_logo 2</title>
    <desc>Created with Sketch.</desc>
    <defs></defs>
    <g id="Page-1" stroke="none" stroke-width="1" fill="none" fill-rule="evenodd" sketch:type="MSPage">
        <path d="M109.461382,219 C170.010649,219 219.095528,169.915121 219.095528,109.365854 C219.095528,48.8165866 170.010649,-0.268292683 109.461382,-0.268292683 C48.912115,-0.268292683 -0.172764228,48.8165866 -0.172764228,109.365854 C-0.172764228,169.915121 48.912115,219 109.461382,219 L109.461382,219 L109.461382,219 Z M109.461382,96.5752033 C135.699398,96.5752033 156.969512,75.3050889 156.969512,49.0670732 C156.969512,22.8290574 135.699398,1.55894309 109.461382,1.55894309 C83.2233664,1.55894309 61.953252,22.8290574 61.953252,49.0670732 C61.953252,75.3050889 83.2233664,96.5752033 109.461382,96.5752033 L109.461382,96.5752033 L109.461382,96.5752033 Z M61.5024927,208.068105 C63.1426373,196.583259 62.8957905,182.95874 61.5024927,168.668933 C59.9750449,153.003269 59.1573691,130.55094 57.0540912,126.71517 C54.9508133,122.879399 38.1452618,102.056911 30.5389169,88.0695171 C22.932572,74.0821236 23.6535355,56.3231666 23.6535355,50.996174 C23.6535355,39.9986119 30.0720259,34.449187 38.1452615,34.449187 C46.2184971,34.449187 50.9464523,41.4246808 52.7631477,49.0670732 C54.2195471,55.1937889 56.1548826,68.3328537 66.0439444,80.5214831 C76.1024947,92.9190132 93.4368739,102.056911 108.493839,102.056911 C123.392323,102.056911 138.567617,94.4295926 148.566409,84.9062488 C158.60765,75.3424752 163.442316,63.8513873 164.158308,49.067106 C164.22453,40.9938376 170.76918,34.449187 178.842416,34.449187 C186.915652,34.449187 193.460302,40.9938376 193.460302,49.0670732 C193.460302,49.7210251 193.41736,50.3649474 193.334142,50.996174 C192.74403,61.8902643 189.72098,76.7395431 185.406332,86.1622303 C183.266883,90.8345368 177.165339,101.852097 172.64844,109.438475 C166.445097,119.857331 161.729984,127.069339 160.710921,132.206301 C159.489062,138.365528 157.655492,153.306535 158.007815,170.013671 C158.263846,182.154597 160.582458,195.231994 160.710921,206.53124 C144.851002,213.661227 130.892081,218.981152 110.28197,218.981152 C90.6936454,218.981152 72.4716997,213.555877 61.5024927,208.068105 Z M105.674137,218.70412 C105.674137,218.70412 104.312702,210.869548 105.4593,207.517239 C106.605897,204.16493 109.185996,204 110.245155,204 C111.304315,204 114.446612,202.423411 115.223306,207.514928 C116,212.606445 116,218.080797 116,218.70412 C116,219.327443 105.674137,218.70412 105.674137,218.70412 Z" id="Oval-1" fill="#CDCDCD" sketch:type="MSShapeGroup"></path>
    </g>
</svg>